<svg xmlns="http://www.w3.org/2000/svg" width="20" height="20" viewBox="0 0 20 20" fill="none">
  <path fill="#feca5d" d="M2.271 17.5c-.153 0-.292-.038-.417-.114a.834.834 0 0 1-.291-.303.785.785 0 0 1-.115-.406.683.683 0 0 1 .115-.427L9.271 2.917a.91.91 0 0 1 .323-.313A.85.85 0 0 1 10 2.5c.138 0 .274.035.407.104.133.07.24.174.322.313l7.709 13.333c.083.139.121.281.114.427a.8.8 0 0 1-.114.406.84.84 0 0 1-.292.303.77.77 0 0 1-.417.114H2.271Zm7.729-2.5c.236 0 .434-.08.594-.24.16-.16.24-.358.239-.593 0-.236-.08-.434-.24-.594a.81.81 0 0 0-.593-.24.81.81 0 0 0-.593.24c-.16.16-.24.358-.24.594-.001.235.079.433.24.594.16.16.358.24.593.239Zm0-2.5c.236 0 .434-.08.594-.24.16-.16.24-.358.239-.593V9.167c0-.236-.08-.434-.24-.594a.81.81 0 0 0-.593-.24.81.81 0 0 0-.593.24c-.16.161-.24.359-.24.594v2.5c0 .236.08.434.24.594.16.16.357.24.593.239Z"/>
</svg>
